<?xml version="1.0" standalone="no"?>
<!DOCTYPE svg PUBLIC "-//W3C//DTD SVG 20010904//EN"
 "http://www.w3.org/TR/2001/REC-SVG-20010904/DTD/svg10.dtd">
<svg version="1.0" xmlns="http://www.w3.org/2000/svg"
 width="2935.000000pt" height="2935.000000pt" viewBox="0 0 2935.000000 2935.000000"
 preserveAspectRatio="xMidYMid meet">
<metadata>
Created by potrace 1.14, written by Peter Selinger 2001-2017
</metadata>
<g transform="translate(0.000000,2935.000000) scale(0.100000,-0.100000)"
fill="#000000" stroke="none">
<path d="M13990 28719 c-4262 -190 -8187 -2311 -10705 -5784 -1758 -2426
-2691 -5386 -2641 -8380 29 -1750 348 -3365 982 -4963 1066 -2689 2968 -5004
5409 -6583 3046 -1970 6731 -2674 10315 -1968 3175 625 6052 2360 8117 4894
1274 1564 2200 3400 2698 5350 394 1543 521 3155 374 4757 -211 2314 -991
4521 -2282 6458 -1347 2021 -3218 3674 -5387 4760 -1757 880 -3667 1372 -5660
1460 -269 11 -946 11 -1220 -1z m1345 -1529 c723 -47 1354 -134 1993 -276
1369 -304 2685 -841 3872 -1582 2450 -1529 4292 -3849 5220 -6577 270 -796
458 -1621 565 -2485 100 -807 117 -1725 49 -2545 -272 -3285 -1810 -6290
-4322 -8443 -1992 -1707 -4494 -2745 -7102 -2947 -635 -49 -1345 -49 -1980 0
-2608 202 -5110 1240 -7102 2947 -485 416 -961 891 -1374 1373 -1704 1985
-2731 4450 -2948 7070 -41 493 -53 1223 -27 1670 103 1793 529 3401 1312 4955
642 1276 1469 2395 2503 3389 1961 1885 4472 3071 7166 3385 336 39 544 55
1045 80 136 7 972 -3 1130 -14z"/>
<path d="M15400 25839 c-1062 -52 -2021 -352 -2750 -862 -174 -121 -333 -251
-393 -320 -229 -264 -360 -653 -419 -1252 -20 -196 -16 -893 5 -1165 79 -982
272 -2076 602 -3405 91 -366 270 -1038 284 -1062 4 -8 33 5 91 39 317 188 719
343 1088 417 276 56 379 65 712 65 236 0 334 -4 435 -17 184 -25 400 -71 561
-118 75 -22 141 -36 145 -32 4 4 40 69 79 143 282 529 721 1137 1266 1752 719
811 1760 1780 2699 2513 293 230 440 387 535 575 78 156 105 281 97 448 -14
297 -158 574 -452 867 -902 902 -2839 1499 -4585 1414z"/>
<path d="M5765 20569 c-689 -66 -1418 -975 -1859 -2318 -176 -535 -290 -1094
-353 -1726 -25 -258 -26 -1034 0 -1280 104 -1010 385 -1818 866 -2495 220
-311 340 -424 568 -538 882 -443 2798 -317 5538 363 409 102 1072 278 1082
289 3 2 -18 42 -45 88 -75 125 -202 387 -259 539 -224 588 -286 1226 -182
1854 23 141 78 370 113 472 l24 72 -151 82 c-581 313 -1196 762 -1852 1354
-795 716 -1737 1736 -2454 2658 -208 267 -359 402 -555 497 -159 77 -313 105
-481 89z"/>
<path d="M14415 17699 c-909 -61 -1739 -545 -2255 -1314 -236 -353 -394 -762
-461 -1193 -27 -175 -37 -528 -20 -709 113 -1207 950 -2224 2109 -2564 148
-43 332 -81 492 -101 137 -17 543 -17 680 0 882 111 1644 581 2126 1312 267
404 429 868 475 1353 17 181 7 534 -20 709 -95 615 -370 1169 -801 1612 -525
540 -1186 846 -1935 895 -175 12 -212 12 -390 0z"/>
<path d="M22250 17539 c-981 -64 -2165 -267 -3515 -603 -399 -99 -1088 -282
-1104 -292 -1 -2 26 -54 62 -116 253 -441 399 -892 459 -1413 7 -61 12 -224
12 -365 0 -285 -15 -444 -65 -695 -26 -130 -103 -422 -115 -434 -2 -2 71 -44
163 -94 454 -244 908 -559 1424 -988 896 -744 2005 -1909 2850 -2993 223 -287
366 -418 564 -516 144 -72 231 -92 390 -94 95 -1 151 4 209 18 833 195 1647
1506 1981 3188 112 565 151 1003 142 1601 -8 572 -57 962 -183 1459 -144 569
-393 1122 -697 1548 -111 155 -243 314 -303 366 -254 219 -616 347 -1166 410
-167 19 -886 28 -1108 13z"/>
<path d="M16445 11708 c-84 -52 -304 -164 -428 -218 -750 -321 -1597 -373
-2387 -145 -63 18 -123 36 -132 40 -13 5 -24 -8 -54 -67 -283 -565 -805 -1281
-1449 -1988 -711 -781 -1647 -1643 -2560 -2360 -224 -176 -298 -244 -385 -349
-184 -225 -259 -428 -247 -676 7 -150 36 -257 112 -410 203 -407 676 -812
1330 -1138 1470 -733 3401 -940 4905 -528 395 109 796 272 1121 456 248 141
588 390 703 516 225 243 359 625 421 1199 22 202 30 696 16 970 -52 1007 -256
2218 -622 3685 -138 552 -270 1037 -285 1042 -5 1 -31 -11 -59 -29z"/>
</g>
</svg>
